<mxfile host="app.diagrams.net" agent="Mozilla/5.0 (Windows NT 10.0; Win64; x64) AppleWebKit/537.36 (KHTML, like Gecko) Chrome/127.0.0.0 Safari/537.36" version="24.7.7">
  <diagram name="PÃ¡gina-1" id="nuZOFTzeTlVvPyNdCwP6">
    <mxGraphModel dx="2927" dy="1580" grid="1" gridSize="10" guides="1" tooltips="1" connect="1" arrows="1" fold="1" page="1" pageScale="1" pageWidth="1169" pageHeight="827" math="0" shadow="0">
      <root>
        <mxCell id="0" />
        <mxCell id="1" parent="0" />
        <mxCell id="9GdMWTHWopy5Y9QK4GNP-26" value="" style="shape=image;verticalLabelPosition=bottom;labelBackgroundColor=default;verticalAlign=top;aspect=fixed;imageAspect=0;image=data:image/png,iVBORw0KGgoAAAANSUhEUgAAAroAAAZACAYAAACWu+F1AAAAAXNSR0IArs4c6QAAAARnQU1BAACxjwv8YQUAAAAJcEhZcwAADsMAAA7DAcdvqGQAACJzSURBVHhe7d15dF3leS/g70iybDzgmcmziYFA3QRIStJLSAjJSpv2puGuNL1tb+9qV6esklIyQIgJg3FsBjPYocQMgfRCTMLQGDDgmDA0KYkZTAh2bAbPFnhEtmVJ1nj03b330bGPbNkYLAZJz6P1sffZZzB/vHr129/ZQwAAAAAAAAAAAAAAAAAAAAAAAAAAAAAAAAAAAAAAAAAAAAAAAAAAAAAAAAAAAAAAAAAAAAAAAAAAAAAAAAAAAAAAAAAAAAAAAAAAAAAAAAAAAAAAAAAAAAAAAAAAAAAAAAAAAAAAAAAAAAAAAAAAAAAAAAAAAAAAAAAAAAAAAAAAAAAAAAAAAAAAAAAAAAAAAAAAAAAAAAAAAAAAAAAAAAAAAAAAAAAAAAAAAAAAAAAAAAAAAAAAAAAAAAAAAAAAAAAAAAAAAAAAAAAAAAAAAAAAAAAAAAAAAAAAAAAAAAAAAAAAAAAAAAAAAAAAAAAAAAAAAAAAAAAAAAAAAAAAAAAAAAAAAAAAAAAAAAAAAAAAAAAAAAAAAAAAAAAAAAAAAAAAAAAAAAAAAAAAAAAAAAAAAAAAAAAAAAAAAAAAAAAAAAAAAAAAAAAAAAAAAAAAAAAAAAAAAAAAAAAAAAAAAAAAAAAAAAAAAAAAAAAAAAAAAAAAAAAAAAAAAAAAAAAAAAAAAAAAAAAAAAAAAAAAAAAAAAAAAAAAAAAAAAAAAAAAAAAAAAAAAAAAAAAAAAAAAAAAAAAAAAAAAAAAAAAAAAAAAAAAAAAAAAAAAAAAAAAAAAAAAAAAAAAAAAAAAAAAAAAAAAAAAAAAAAAAAAAAAAAAAAAAAAAAAAAAAAAAAAAAAAAAAAAAAAAAAAAAAAAAAAAAAAAAAAAAAAAAAAAAAAAAAAAAAAAAAAAAAAAAAAAAAAAAAAAAAAAAAAAAAAAAAAAAAAAAAAAAAAAAAAAAAAAAAAAAAAAAAAAAAAAAAAAAAAAAAAAAAAAAAAAAAAAAAAAAAAAAAAAAAAAAAAAAAAAAAAAAAAAAAAAAAAAAAAAAAAAAAAAAAAAAAAAAAAAAAAAAAAAAAAAAAAAAAAAAAAAAAAAAAAAAAAAAAAAAAAAAAAAAAAAAAAAAAAAAAAAAAAAAAAAAAAAAAAAAAAAAAAAAAAAAAAAAAAAAAAAAAAAAAAAAAAAAAAAAAAAAAAAAAAAAAAAAAAAAAAAAAAAAAAAAAAAAAAAAAAAAAAAAAAAAAAAAAAAAAAAAAAAAAAAAAAAAAAAAAAAAAAAAAAAAAAAAAAAAAAAAAAAAAAAAAAAAAAAAAAAAAAAAAAAAAAAAAAAAAAAAAAAAAAAAAAAAAAAAAAAAAAAAAAAAAAAAAAAAAAAAAAAAAAAAAAAAAAAAAAAAAAAAAAAAAAAAAAAAAAAAAAAAAAAAAAAAAAAAAAAAAAAAAAAAAAAAAAAAAAAAAAAAAAAAAAAAAAAAAAAAAAAAAAAAAAAAAAAAAAAAAAAAAAAAAAAAAAAAAAAAAAAAAAAAAAAAAAAAAAAAAAAAAAAAAAAAAAAAAAAAAAAAAAAAAAAAAAAAAAAAAAAAAAAAAAAAAAAAAAAAAAAAAAAAAAAAAAAAAAAAAAAAAAAAAAAAAAAAAAAAAAAAAAAAAAAAAAAAAAAAAAAAAAAAAAAAAAAAAAAAAAAAAAAAAAAAAAAAAAAAAAAAAAAAAAAAAAAAAAAAAAAAAAAAAAAAAAAAAAAAAAAAAAAAAAAAAAAAAAAAAAAAAAAAAAAAAAAAAAAAAAAAAAAAAAAAAAAAAAAAAAAAAAAAAAAAAAAAAAAAAAAAAAAAAAAAAAAAAAAAAAAAAAAAAAAAAAAAAAAAAAAAAAAAAAAAAAAAAAAAAAAAAAAAAAAAAAAAAAAAAAAAAAAAAAAAAAAAAAAAAAAAAAAAAAAAAAAAAAAAAAAAAAAAAAAAAAAAAAAAAAAAAAAAAAAAAAAAAAAAAAAAAAAAAAAAAAAAAAAAAAAAAAAAAAAAAAAAAAAAAAAAAAAAAAAAAAAAAAAAAAAAAAAAAAAAAAAAAAAAAAAAAAAAAAAAAAAAAAAAAAAAAAAAAAAAAAAAAAAAAAAAAAAAAAAAAAAAAAAAAAAAAAAAAAAAAAAAAAAAAAAAAAAAAAAAAAAAAAAAAAAAAAAAAAAAAAAAAAAAAAAAAAAAAAAAAAAAAAAAAAAAAAAAAAAAAAAAAAAAAAAAAAAAAAAAAAAAAAAAAAAAAAAAAAAAAAAAAAAAAAAAAAAAAAAAAAAAAAAAAAAAAAAAAAAAAAAAAAAAAAAAAAAAAAAAAAAAAAAAAAAAAAAAAAAAAAAAAAAAAAAAAAAAAAAAAAAAAAAAAAAAAAAAAAAAAAAAAAAAAAAAAAAAAAAAAAAAAAAAAAAAAAAAAAAAAAAAAAAAAAAAAAAAAAAAAAAAAAAAAAAAAAAAAAAAAAAAAAAAAAAAAAAAAAAAAAAAAAAAAAAAAAAAAAAAAAAAAAAAAAAAAAAAAAAAAAAAAAAAAAAAAAAAAAAAAAAAAAAAAAAAAAAAAAAAAAAAAAAAAAAAAAAAAAAAAAAAAAAAAAAAAAAAAAAAAAAAAAAAAAAAAAAAAAAAAAAAAAAAAAAAAAAAAAAAAAAAAAAAAAAAAAAAAAAAAAAAAAAAAAAAAAAAAAAAAAAAAAAAAAAAAAAAAAAAAAAAAAAAAAAAAAAAAAAAAAAAAAAAAAAAAAAAAAAAAAAAAAAAAAAAAAAAAAAAAAAAAAAAAAAAAAAAAAAAAAAAAAAAAAAAAAAAAAAAAAAAAAAAAAAAAAAAAAAAAAAAAAAAAAAAAAAAAAAAAAAAAAAAAAAAAAAAAAAAAAAAAAAAAAAAAAAAAAAAAAAAAAAAAAAAAAAAAAAAAAAAAAAAAAAAAAAAAAAAAAAAAAAAAAAAAAAAAAAAAAAAAAAAAAAAAAAAAAAAAAAAAAAAAAAAAAAAAAAAAAAAAAAAAAAAAAAAAAAAAAAAAAAAAAAAAAAAAAAAAAAAAAAAAAAAAAAAAAAAAAAAAAAAAAAAAAAAAAAAAAAAAAAAAAAAAAAAAAAAAAAAAAAAAAAAAAAAAAAAAAAAAAAAAAAAAAAAAAAAAAAAAAAAAAAAAAAAAAAAAAAAAAAAAAAAAAAAAAAAAAAAAAAAAAAAAAAAAAAAAAAAAAAAAAAAAAAAAAAAAAAAAAAAAAAAAAAAAAAAAAAAAAAAAAAAAAAAAAAAAAAAAAAAAAAAAAAAAAAAAAAAAAAAAAAAAAAAAAAAAAAAAAAAAAAAAAAAAAAAAAAAAAAAAAAAAAAAAAAAAAAAAAAAAAAAAAAAAAAAAAAAAAAAAAAAAAAAAAAAAAAAAAAAAAAAAAAAAAAAAAAAAAAAAAAAAAAAAAAAAAAAAAAAAAAAAAAAAAAAAAAAAAAAAAAAAAAAAAAAAAAAAAAAAAAAAAAAAAAAAAAAAAAAAAAAAAAAAAAAAAAAAAAAAAAAAAAAAAAAAAAAAAAAAAAAAAAAAAAAAAAAAAAAAAAAAAAAAAAAAAAAAAAAAAAAAAAAAAAAAAAAAAAAAAAAAAAAAAAAAAAAAAAAAAAAAAAAAAAAAAAAAAAAAAAAAAAAAAAAAAAAAAAAAAAAAAAAAAAAAAAAAAAAAAAAAAAAAAAAAAAAAAAAAAAAAAAAAAAAAAAAAAAAAAAAAAAAAAAAAAAAAAAAAAAAAAAAAAAAAAAAAAAAAAAAAAAAAAAAAAAAAAAAAAAAAAAAAAAAAAAAAAAAAAAAAAAAAAAAAAAAAAAAAAAAAAAAAAAAAAAAAAAAAAAAAAAAAAAAAAAAAAAAAAAAAAAAAAAAAAAAAAAAAAAAAAAAAAAAAAAAAAAAAAAAAAAAAAAAAAAAAAAAAAAAAAAAAAAAAAAAAAAAAAAAAAAAAAAAAAAAAAAAAAAAAAAAAAAAAAAAAAAAAAAAAAAAAAAAAAAAAAAAAAAAAAAAAAAAAAAAAAAAAAAAAAAAAAAAAAAAAAAAAAAAAAAAAAAAAAAAAAAAAAAAAAAAAAAAAAAAAAAAAAAAAAAAAAAAAAAAAAAAAAAAAAAAAAAAAAAAAAAAAAAAAAAAAAAAAAAAAAAAAAAAAAAAAAAAAAAAAAAAAAAAAAAAAAAAAAAAAAAAAAAAAAAAAAAAAAAAAAAAAAAAAAAAAAAAAAAAAAAAAAAAAAAAAAAAAAAAAAAAAAAAAAAAAAAAAAAAAAAAAAAAAAAAAAAAAAAAAAAAAAAAAAAAAAAAAAAAAAAAAAAAAAAAAAAAAAAAAAAAAAAAAAAAAAAAAAAAAAAAAAAAAAAAAAAAAAAAAAAAAAAAAAAAAAAAAAAAAAAAAAAAAAAAAAAAAAAAAAAAAAAAAAAAAAAAAAAAAAAAAAAAAAAAAAAAAAAAAAAAAAAAAAAAAAAAAAAAAAAAAAAAAAAAAAAAAAAAAAAAAAAAAAAAAAAAAAAAAAAAAAAAAAAAAAAAAAAAAAAAAAAAAAAAAAAAAAAAAAAAAAAAAAAAAAAAAAAAAAAAAAAAAAAAAAAAAAAAAAAAAAAAAAAAAAAAAAAAAAAAAAAAAAAAAAAAAAAAAAAAAAAAAAAAAAAAAAAAAAAAAAAAAAAAAAAAAAAAAAAAAAAAAAAAAAAAAAAAAAAAAAAAAAAAAAAAAAAAAAAAAAAAAAAAAAAAAAAAAAAAAAAAAAAAAAAAAAAAAAAAAAAAAAAAAAAAAAAAAAAAAAAAAAAAAAAAAAAAAAAAAAAAAAAAAAAAAAAAAAAAAAAAAAAAAAAAAAAAAAAAAAAAAAAAAAAAAAAAAAAAAAAAAAAAAAAAAAAAAAAAAAAAAAAAAAAAAAAAAAAAAAAAAAAAAAAAAAAAAAAAAAAAAAAAAAAAAAAAAAAAAAAAAAAAAAAAAAAAAAAAAAAAAAAAAAAAAAAAAAAAAAAAAAAAAAAAAAAAAAAAAAAAAAAAAAAAAAAAAAAAAAAAAAAAAAAAAAAAAAAAAAAAAAAAAAAAAAAAAAAAAAAAAAAAAAAAAAAAAAAAAAAAAAAAAAAAAAAAAAAAAAAAAAAAAAAAAAAAAAAAAAAAAAAAAAAAAAAAAAAAAAAAAAAAAAAAAAAAAAAAAAAAAAAAAAAAAAAAAAAAAAAAAAAAAAAAAAAAAAAAAAAAAAAAAAAAAAAAAAAAAAAAAAAAAAAAAAAAAAAAAAAAAAAAAAAAAAAAAAAAAAAAAAAAAAAAAAAAAAAAAAAAAAAAAAAAAAAAAAAAAAAAAAAAAAAAAAAAAAAAAAAAAAAAAAAAAAAAAAAAAAAAAAAAAAAAAAAAAAAAAAAAAAAAAAAAAAAAAAAAAAAAAAAAAAAAAAAAAAAAAAAAAAAAAAAAAAAAAAAAAAAAAAAAAAAAAAAAAAAAAAAAAAAAAAAAAAAAAAAAAAAAAAAAAAAAAAAAAAAAAAAAAAAAAAAAAAAAAAAAAAAAAAAAAAAAAAAAAAAAAAAAAAAAAAAAAAAAAAAAAAAAAAAAAAAAAAAAAAAAAAAAAAAAAAAAAAAAAAAAAAAAAAAAAAAAAAAAAAAAAAAAAAAAAAAAAAAAAAAAAAAAAAAAAAAAAAAAAAAAAAAAAAAAAAAAAAAAAAAAAAAAAAAAAAAAAAAAAAAAAAAAAAAAAAAAAAAAAAAAAAAAAAAAAAAAAAAAAAAAAAAAAAAAAAAAAAAAAAAAAAAAAAAAAAAAAAAAAAAAAAAAAAAAAAAAAAAAAAAAoCvk2pcAdLF/u3xGrKysDP379w/9+vUL5eXl2fYYY4hJ9922bVtobm4Osy66UC8GeAdorgBd7Mb/uCOOHjUqjB09JgwcODAMHjokCbuHhfKk48bk+bTxpmPDpuqwc0dN2Lx5c3h944bk8cbwna/9q74M0EU0VIAuMOWqGXFcEmwnjp+QBNxxYeSw4SGdza0oLw9l5XuabVv7MlWWjHR7Q0NrqN6+LWzYvCmsf60qrFy7JnznXIEX4FBppACHaOYtc+JJJ50UTjz+xHDk8OH7NNbaXY2hrq4uNDU3h7KysiwA9+nTJ1QmY2D/flngTaWzvTvrG8JLL78cVq5ZHf7+z7+kRwMcAk0U4G06/7tT46SJx4ZTTjklnHD8CaG8vaVu2bEjvPHGG2HVqlWhtrY2VFdvCzU1NaGxuSnkcrlQngTcPuXl4YgRI8MRRxwRxo8ZG0aNGhVGDB2cvb+lLfmMLVvC4sWLw9rXq8KFX/mKXs077vY77o3HnzApq9XPf/aTag4AequLrpgW5y38WVy2ZnVsjDE2JGN7S0t8asmSeMs9d8dLr78unaA9KF+bNi1e+8MfxgWLFsW127Znn5V+5qYdtfEXzz0fr5lz80F/FrxV18yeE3+56Ln4xva62JLUXW1ja/zRvQ+oOXoEe2z0CPfMuzdOPPbYMGTw4FDZt2+IbW2hsbkhxHxbyMd8tmwLMZTnykKuIoSyWB5iWVvoV5m8Nhb6eS4UzojP5/OhubklOxv+iZ8/Fr5+3vl+T+hg+uxr47ixY8Mff+7zYeBh/bNDDjZVbw3Pv/BiWPK7pWHq177+tmvmtnnz4kc+fHKYNH5cVpE76xqyz3zm+cVhylfPUYt0qXvvfyieeuqpYezoo9q3hNCWFPT9DzwUvnz2/1RvAO+ly2dMj48+8XhsbG6KrUlibUtGa8wny3zJsiVZtpQsm0uWpaPwfGEU3ruuam38yT0/NrNBB/c8PC+ueG1dbErqbVdSKb999ZV4y10/6rI6ue722+LCX/0q7mhsTiozxq219fGxXy+KU2fPUot0ialXXxWXvrwi7qirT3phoXcW+meM9U3Nce49/6nWAN5rCx9/LG7eumV3k94zCkG14ygNsgcaHd+3cvWKOOPKaZo+mRmzrozPLv1NEnLzsS7fHJeuWhlv+dGdb1of/3DBBR1e8097Pd5beujDkpWrYn0+JlUZY9XW6nj7ffepQw7ZA48uyOo3DbWlIbd0/PTB+WqNHsHXEnRrGzdvikcdcWT7o/0pvaDT2zP/4QfDF/70bL8vhBeW/yb+3gcnJ1VVFta9VhWOGzO+07r4h299I+Zy5SG95Njo0aPDkMMHh8P69g19yiuyw2Lq6+vDytWrQnXNjnD1lIs6/Yxps2fHT5/xyfCRD38oe7zslVfDoueeDef8zd+oRd6yO++eGz/xiU+EUUePyh6nRVS8xF1RId2WhZ8+8GD40hf/TJ0BvJfSoHtw8gc5ikq3tcQHH5pndoMw+6ZZsWrL+qQiWpJlVbz6xuv3WxdTZ10bH1/8TPzd+vWxuqEx7soqqTCakrLaVrsrvrKuKv7X4sVxzo/viudeflmnn3Xzj38cV2/anJ2ctrm2Li74xS/jpTNnqkcO2qXTp8ZHHvtZXLexKqm/fDaKh3alo2O/S7fFeN/9TkYDeE9dPnNGzILu3t+5vZVxQMU/BIIuBY/+YmFSDU2xeucb8ZHHH9lvTUy7fmZ87OmnYnVjXRZQiwF377JL1xuTbPG7tWvj3Icfil+/cnqnnznv5z/PwnL6WStf2xBvvXOueuSg3HbnD+Pa16raD1MoBNw9IbdYj4IuPVfxOuXQ7VRUVITcO96KC4c9xC44/IHubdrMS+Lxx30g5JKf9evXh0WLFrU/09G0666MnznrzHD6aX8YDu87ILtyQvr9b3GZjpgPobmxJavfyqQLTxo7Lnz8o38Q/sdHTwvfvnbf2doXl/0urF2/Lls/8sgjwzFHHhWmTL9CEOGAfv3copheGWTsqNHZ47LkJ7blO/nDLwrQc6luurkkgOa6PoSmwbY0RcScQ9V6u4kTJ4ZjjjomWWsLa1atDNO+M22fovj6xefHMz91Rjh18u8nwTYmobYtWaZH87Zl60W5JPVWVlZkB0SmYbdP8kmjRo4MHzrpxHDicZPCOZdd1CHEXnbe13Ir16wMTW2tobKiLBxx5IgwfNjQ9meho/QbqJdeWR5P+8hp4aiRR2Q7V/nWltDS3Bwqyvrs3uHqqGMciPu+ALolQZduq63t3ZplTQJLmcmz3m78+LFJOMiFmrqasGbNmvatHX38Yx8LJx5/QtJYc0nVtO5usHsyQ7IDlV7XOcY9QSINu8kinfE9csTIMGnCxDC2/WShUuurqrK7raWVOGJEEnSHDy88Ae2+f/Os+PRzT8UzzvhUOP64D2Z1mNZWS0s+2aEq3Hq6IK3Mzv78lyX1JRbQs6hoeoZ0VrezcYjST0hHettWerc0XKY2bNgQvnHet/YpiG9N+3Y8+eQPh0H9ByaPYsi3NCchoziTWxjZ7lJaS7lk56m0ppIn0mbcr7wiTBg3PkycMCGcO/XiDntX5//jV3IbNm/K1ocMGRIGDx2SrcNV114S5y+4O5515qfD7514Uhg86PAs4GYFl4w+FeXZKD5OR3rlD+gNBF26rTQovFNfrxU/1i8IqYtmXBAr2++AVl1dXdi4l4njJ4SxR4/OaicLrX36ZdsLjwojV7KeftbuQkukq+ms7rCBg8LIIcPCoOTf21txRrfysH5hwIABhY30anPvvjWe/cUvhT/63J+G4yadEAZkO1plobGxsRBq96OyT2VWc/s9zyGmdQrdn0qm2yor2xMa9juyTn6AUZQ2+9KRKL4k+6T9/TGgV+jbt28YOXJkNi/7RvX2wsa9TBw7Jguq6Sh8YZxUTkyPw02X7fW4t+RlLfmW3bVYrLnRo0aFYYP3nbGtrdsV0nm49FbWQ4cODefN+K7K7KVuvO3K+MrKpfFzn/1i+MDEk5KaSHes+iQjqblEv37J4/a66qD0265i9RT7Xkk1tbYkdQk9QCedF7qH1rZ8+9o7q/C3wq9Kb9anT5/suNq0DppaOw8Aw4YNS2qlGFXbw21peGhfL51By1bLOqaRtNIOq+wbBvbfd8Y2n8+HliSAtCZvbG1tbf9/oreZfv0F8cxPfyYcc/SYMGxoekhNWjUH6FFv43Auh2vRUxzgNwPe39I/+vBuSGd0Uy0xCZlJwOzMgP6Dkv+2h9yiYu4tan9c3NyW1HB6p7SiNLZmUaS8LFRUprNzHaUnYMbkPTHflgWR2RddXPrp9BLjx48Pk8ZPSmouPbylGF47CbHFQit+q1A63kT2hRn0AEoZ3oQ5M9IZ3bJcWRIuY/shM/uqb2hIokbxrPU3a61pKGkL5eXpgQ4dpfWWnijU1NRU2FCioqw8e095EoRLAzK9S1VVVXh51fLQkk9rJK2ldOerdNlJ6D1IxW8czOjSUwi6dFsaMe+W9HCBfFs+VCQ/gwZ1fhLYli1b2tcOIAsRxSDSPtqDRboobt3VWB9qd9Wmmzvo269PEnCTwJ28yDcavdeF516Rm/yBj+eeeuqXYc261cmWtHpi+0+xikpGcWZ3f4rPl7xufzt00N2oZIA3kV5poaamJlsvXmZsb6vXrQlNrc1ZtGjPrm/btu3bw866fYPu4QMGZrO66WxvzfYd7Vvprc761J/kHn74gfDbJYtDY3NdsqVYfaW7TW9PepMT6AkEXbqtd3NGy0k/vdv0KVfntmzclDXMI5Kge9mVHa9xmzrn7/4lt2r1imStrRA3DjSDVswi6chOEErfU7jO7sY3NiWheW2Y/s0pHT7h4muvjulNItL/h10NdWHr1q2FJ+jVzj3ngtwpH/rD3Lz77wtLl78Qauu3J3WU1tI+JdphxnbPcn+BVtClZxB06bZ8dcu7adu29Bq2+TBw4MD93pVs1aqVoSnfmK0fOOymrXff9lvf3JDdkGLdunXtW/YYOmRIGHL44Gw9PZRiZ60ZXfb467/4p9yTTz4RXl3xcqip3R7yMb06SBp2CztSb83beQ+8Pwm6dFvpMWT7OwP+YB3sbYTN6LJkyZLsuNmRQ4eHSZOObd/a0dmf/1+5p59elM2opVra2m/1WzqTlp3xXpbsqCW1m2zLbgecbk5G1evrw9PPLgqX/Ns394nIxx8/KYwbPSZbX79+fdhiRpe9nPfVi3IfPfmTuYcfeTCsr1qd1WGhuvYKrsXqSpbphEGxD5beLe1Qeyu8Xwi6dGsVFYd25vnBnnBxqP8O3d83zpmS27SpcAveCRMmhJk3dH6zhrNO/0zul7/6ryxklJcVbgC8+4Ul8bU8qamGXbt270Rt3ro5LF++PKxYkR7+0NFVN90QRx99TLbe2NIctm6rDpd88/x9wjCk/s///ufcseMm537x30+GjZtfT7aUht2SwJvWaHn57j5YWVmZbUvHoMPTO6xB9yfo0q11+eELaegojhKu8EDq5eUvZVl1wtjx4eOnfaywsRNnnX5W7tHHF4Sa+m0hH5uS2JDOrBVG6YX7D+vfPzS3NoUXly0NP/v5o+GZZ54Jc66evU+xfXDScWH8uHHZv/3661XZgDdz5hl/nLvn3rvC8leWJrWX9sp0FIJsZ6O1dc+MbvHkSwDeQ5u2bI5dom2vEfPtoyV52Bx/+sA9HZMvvdIl370wrqp6KbbGXXF7/cb4k3m3HbAubrljTnzkiflxZdWK2JhvSN7XElvyjbG2fkfctmNrXLb8xXj7f9x6wM+48obr46oNVbEpqcbqXbVx/hOPxinTp6pH3pL/vH9urN62IamixmQ0t4+W9lHsd3t63t33zVVjAO+11WvXJI25C7xJ0L3xptmaPpm77rs9bqvbkITWuvjaplfj7BuvOKjauObfr4i33nlTvOn2f48zZ10Vp8649E3fd9X3ro3PvPDc7jjyzJIX4jVzblCLvC1XX3dZ/O3Sp5Oe1piNjmG3dDTHhx6ep84A3muPPfF4rKmpSRrzITpA0F2y7DcaPh08+asFSZnsSuqjMa5ctSxec920Lq+Rq2+4Lr6yZkUSqPPJiHFV1br4vVtvUoscsvkL7o7VO15Pqmr/QXfe/T9RawDvBwsXLoy1tbVJcz4EewXdfGtzbNhVF5997teaPZ1a9OyTSa0UgsLrG9bGm3/QdTOtM78/K7746rIs5LYlY/PWLfH2O/6fWqRLLVn6fGxuSXfY9g268x+6T73RIzjDhh5h3gP3x+OO+0AYOnRodhZ7epJav379sjtIHUh6tnFbW2sIbblQVp48zlWE1nxzaGhoCI2NjeH3J5/id4ROzbx+avyrv/jbcEx2NYQYmlobw6OP/ix84U++fEg1c833r4t/9oWzw/hRY7MGXd9QH55f/EL49BmfVIt0uR/NvS2efvoZYdzYwqXrCtrCgoUPh8//0Z+rOQDorb534zXxucW/jsVjHtOxet3L8Qd3vPVDDG6/8wdxyUsvxpbYnJ201tDWEHc27YwPLnzQzBrvuPkLfhJr6jckNVwbq2vWxrvuuVnd0SPYWwM4RAsfeyCefPKpYcSwEcmjsrCrcVeoWv9aWLZsWXaZpi1bN4dvX3Bxh357ydQL44hhI8OYMWPChGMnhlGjRoXhQ4eHtqQtb6/ZHtZVrQ/3z38wfHfK5fo074rvzZkWJ04cn9XsX3/5q+qOHkEhA3SBObdcH0877bQwefKHQnmuPNlSuEx5PubDzp07s/DQ1NSQXaB/wIABoX///mHQoEHJq/Zczrw1ibmrV68Nzz77bPi/f/m3+jPAIdJIAbrQTbfOipMnTw5jxowLw4YNC/37ld5hKr0w/97awrYdO7Lb+q5YvSq7O9rUi6brzQBdQDMFeIf8cO7NcfjwkeHoo4/OQm96K+nW1tbQ3NycLTe+VhW276gOa9esD9/65qX6MQAAAAAAAAAAAAAAAAAAAAAAAAAAAAAAAAAAAAAAAAAAAAAAAAAAAAAAAAAAAAAAAAAAAAAAAAAAAAAAAAAAAAAAAAAAAAAAAADA+1UI/x+S31jxLyI+kwAAAABJRU5ErkJggg==;" vertex="1" parent="1">
          <mxGeometry x="1160" y="1890" width="698" height="1600" as="geometry" />
        </mxCell>
        <mxCell id="9GdMWTHWopy5Y9QK4GNP-59" value="" style="group" vertex="1" connectable="0" parent="1">
          <mxGeometry x="160" y="160" width="720" height="960" as="geometry" />
        </mxCell>
        <mxCell id="9GdMWTHWopy5Y9QK4GNP-2" value="" style="rounded=0;whiteSpace=wrap;html=1;fillColor=#dae8fc;strokeColor=#6c8ebf;" vertex="1" parent="9GdMWTHWopy5Y9QK4GNP-59">
          <mxGeometry width="720" height="960" as="geometry" />
        </mxCell>
        <mxCell id="9GdMWTHWopy5Y9QK4GNP-3" value="&lt;b style=&quot;font-size: 80px;&quot;&gt;&lt;font style=&quot;font-size: 80px;&quot; face=&quot;Garamond&quot;&gt;Bienvenido a la Banca ATM&lt;/font&gt;&lt;/b&gt;" style="text;html=1;align=center;verticalAlign=middle;whiteSpace=wrap;rounded=0;fontSize=80;" vertex="1" parent="9GdMWTHWopy5Y9QK4GNP-59">
          <mxGeometry x="50" y="75.5" width="620" height="259" as="geometry" />
        </mxCell>
        <mxCell id="9GdMWTHWopy5Y9QK4GNP-4" value="&lt;font style=&quot;font-size: 40px;&quot; face=&quot;Courier New&quot;&gt;********&lt;/font&gt;" style="rounded=0;whiteSpace=wrap;html=1;fillColor=#f5f5f5;fontColor=#333333;strokeColor=#666666;" vertex="1" parent="9GdMWTHWopy5Y9QK4GNP-59">
          <mxGeometry x="220" y="480" width="280" height="60" as="geometry" />
        </mxCell>
        <mxCell id="9GdMWTHWopy5Y9QK4GNP-5" value="&lt;font color=&quot;#999999&quot; style=&quot;font-size: 30px;&quot;&gt;Ingrese su NIP&lt;/font&gt;" style="text;html=1;align=center;verticalAlign=middle;whiteSpace=wrap;rounded=0;" vertex="1" parent="9GdMWTHWopy5Y9QK4GNP-59">
          <mxGeometry x="245" y="560" width="230" height="30" as="geometry" />
        </mxCell>
        <mxCell id="9GdMWTHWopy5Y9QK4GNP-7" value="&lt;font style=&quot;font-size: 30px;&quot; color=&quot;#ffffff&quot;&gt;Confirmar Acceso&lt;/font&gt;" style="rounded=1;whiteSpace=wrap;html=1;fillColor=#6C8EBF;strokeColor=#A9C4EB;" vertex="1" parent="9GdMWTHWopy5Y9QK4GNP-59">
          <mxGeometry x="215" y="680" width="290" height="90" as="geometry" />
        </mxCell>
        <mxCell id="9GdMWTHWopy5Y9QK4GNP-60" value="" style="group" vertex="1" connectable="0" parent="1">
          <mxGeometry x="960" y="161.51" width="720" height="958.49" as="geometry" />
        </mxCell>
        <mxCell id="9GdMWTHWopy5Y9QK4GNP-9" value="" style="rounded=0;whiteSpace=wrap;html=1;fillColor=#dae8fc;strokeColor=#6c8ebf;" vertex="1" parent="9GdMWTHWopy5Y9QK4GNP-60">
          <mxGeometry width="720" height="958.49" as="geometry" />
        </mxCell>
        <mxCell id="9GdMWTHWopy5Y9QK4GNP-12" value="&lt;font color=&quot;#999999&quot; style=&quot;font-size: 30px;&quot;&gt;Seleccione una OpciÃ³n&lt;/font&gt;" style="text;html=1;align=center;verticalAlign=middle;whiteSpace=wrap;rounded=0;" vertex="1" parent="9GdMWTHWopy5Y9QK4GNP-60">
          <mxGeometry x="330" y="178.49" width="360" height="41" as="geometry" />
        </mxCell>
        <mxCell id="9GdMWTHWopy5Y9QK4GNP-14" value="&lt;div style=&quot;text-align: justify;&quot;&gt;&lt;b style=&quot;color: rgb(255, 255, 255); font-family: Garamond; background-color: initial;&quot;&gt;&lt;font style=&quot;font-size: 70px;&quot;&gt;Banca ATM&lt;/font&gt;&lt;/b&gt;&lt;/div&gt;" style="rounded=0;whiteSpace=wrap;html=1;fillColor=#6C8EBF;strokeColor=#A9C4EB;" vertex="1" parent="9GdMWTHWopy5Y9QK4GNP-60">
          <mxGeometry width="720" height="138.49" as="geometry" />
        </mxCell>
        <mxCell id="9GdMWTHWopy5Y9QK4GNP-28" value="" style="group" vertex="1" connectable="0" parent="9GdMWTHWopy5Y9QK4GNP-60">
          <mxGeometry x="80" y="278.49" width="300" height="80" as="geometry" />
        </mxCell>
        <mxCell id="9GdMWTHWopy5Y9QK4GNP-16" value="" style="ellipse;whiteSpace=wrap;html=1;aspect=fixed;strokeColor=none;fillColor=#6C8EBF;" vertex="1" parent="9GdMWTHWopy5Y9QK4GNP-28">
          <mxGeometry width="80" height="80" as="geometry" />
        </mxCell>
        <mxCell id="9GdMWTHWopy5Y9QK4GNP-18" value="" style="ellipse;whiteSpace=wrap;html=1;aspect=fixed;strokeColor=none;fillColor=#6C8EBF;" vertex="1" parent="9GdMWTHWopy5Y9QK4GNP-28">
          <mxGeometry x="220" width="80" height="80" as="geometry" />
        </mxCell>
        <mxCell id="9GdMWTHWopy5Y9QK4GNP-17" value="&lt;font color=&quot;#ffffff&quot; style=&quot;font-size: 30px;&quot;&gt;Consultar Saldo&lt;/font&gt;" style="rounded=0;whiteSpace=wrap;html=1;fillColor=#6C8EBF;strokeColor=none;" vertex="1" parent="9GdMWTHWopy5Y9QK4GNP-28">
          <mxGeometry x="40" width="220" height="80" as="geometry" />
        </mxCell>
        <mxCell id="9GdMWTHWopy5Y9QK4GNP-29" value="" style="group" vertex="1" connectable="0" parent="9GdMWTHWopy5Y9QK4GNP-60">
          <mxGeometry x="80" y="439.25" width="300" height="80" as="geometry" />
        </mxCell>
        <mxCell id="9GdMWTHWopy5Y9QK4GNP-21" value="" style="ellipse;whiteSpace=wrap;html=1;aspect=fixed;strokeColor=none;fillColor=#6C8EBF;" vertex="1" parent="9GdMWTHWopy5Y9QK4GNP-29">
          <mxGeometry width="80" height="80" as="geometry" />
        </mxCell>
        <mxCell id="9GdMWTHWopy5Y9QK4GNP-23" value="" style="ellipse;whiteSpace=wrap;html=1;aspect=fixed;strokeColor=none;fillColor=#6C8EBF;" vertex="1" parent="9GdMWTHWopy5Y9QK4GNP-29">
          <mxGeometry x="220" width="80" height="80" as="geometry" />
        </mxCell>
        <mxCell id="9GdMWTHWopy5Y9QK4GNP-19" value="&lt;font color=&quot;#ffffff&quot; style=&quot;font-size: 30px;&quot;&gt;Retirar Efectivo&lt;/font&gt;" style="rounded=0;whiteSpace=wrap;html=1;fillColor=#6C8EBF;strokeColor=none;" vertex="1" parent="9GdMWTHWopy5Y9QK4GNP-29">
          <mxGeometry x="40" width="220" height="80" as="geometry" />
        </mxCell>
        <mxCell id="9GdMWTHWopy5Y9QK4GNP-30" value="" style="group" vertex="1" connectable="0" parent="9GdMWTHWopy5Y9QK4GNP-60">
          <mxGeometry x="80" y="598.49" width="450" height="80" as="geometry" />
        </mxCell>
        <mxCell id="9GdMWTHWopy5Y9QK4GNP-22" value="" style="ellipse;whiteSpace=wrap;html=1;aspect=fixed;strokeColor=none;fillColor=#6C8EBF;" vertex="1" parent="9GdMWTHWopy5Y9QK4GNP-30">
          <mxGeometry width="80" height="80" as="geometry" />
        </mxCell>
        <mxCell id="9GdMWTHWopy5Y9QK4GNP-24" value="" style="ellipse;whiteSpace=wrap;html=1;aspect=fixed;strokeColor=none;fillColor=#6C8EBF;" vertex="1" parent="9GdMWTHWopy5Y9QK4GNP-30">
          <mxGeometry x="370" width="80" height="80" as="geometry" />
        </mxCell>
        <mxCell id="9GdMWTHWopy5Y9QK4GNP-20" value="&lt;font color=&quot;#ffffff&quot; style=&quot;font-size: 30px;&quot;&gt;Transferencia ElectrÃ³nica&lt;/font&gt;" style="rounded=0;whiteSpace=wrap;html=1;fillColor=#6C8EBF;strokeColor=none;" vertex="1" parent="9GdMWTHWopy5Y9QK4GNP-30">
          <mxGeometry x="40" width="360" height="80" as="geometry" />
        </mxCell>
        <mxCell id="9GdMWTHWopy5Y9QK4GNP-35" value="" style="group" vertex="1" connectable="0" parent="9GdMWTHWopy5Y9QK4GNP-60">
          <mxGeometry x="370" y="758.49" width="260" height="80" as="geometry" />
        </mxCell>
        <mxCell id="9GdMWTHWopy5Y9QK4GNP-32" value="" style="ellipse;whiteSpace=wrap;html=1;aspect=fixed;strokeColor=none;fillColor=#6C8EBF;" vertex="1" parent="9GdMWTHWopy5Y9QK4GNP-35">
          <mxGeometry width="80" height="80" as="geometry" />
        </mxCell>
        <mxCell id="9GdMWTHWopy5Y9QK4GNP-33" value="" style="ellipse;whiteSpace=wrap;html=1;aspect=fixed;strokeColor=none;fillColor=#6C8EBF;" vertex="1" parent="9GdMWTHWopy5Y9QK4GNP-35">
          <mxGeometry x="180" width="80" height="80" as="geometry" />
        </mxCell>
        <mxCell id="9GdMWTHWopy5Y9QK4GNP-34" value="&lt;font color=&quot;#ffffff&quot; style=&quot;font-size: 30px;&quot;&gt;Cambiar NIP&lt;/font&gt;" style="rounded=0;whiteSpace=wrap;html=1;fillColor=#6C8EBF;strokeColor=none;" vertex="1" parent="9GdMWTHWopy5Y9QK4GNP-35">
          <mxGeometry x="40" width="180" height="80" as="geometry" />
        </mxCell>
        <mxCell id="9GdMWTHWopy5Y9QK4GNP-68" value="" style="group" vertex="1" connectable="0" parent="1">
          <mxGeometry x="1760" y="160" width="720" height="958.49" as="geometry" />
        </mxCell>
        <mxCell id="9GdMWTHWopy5Y9QK4GNP-49" value="" style="rounded=0;whiteSpace=wrap;html=1;fillColor=#dae8fc;strokeColor=#6c8ebf;" vertex="1" parent="9GdMWTHWopy5Y9QK4GNP-68">
          <mxGeometry width="720" height="958.49" as="geometry" />
        </mxCell>
        <mxCell id="9GdMWTHWopy5Y9QK4GNP-51" value="&lt;b&gt;&lt;font face=&quot;Garamond&quot;&gt;Retiro de Efectivo&amp;nbsp; &amp;nbsp; &amp;nbsp;&lt;/font&gt;&lt;/b&gt;" style="text;html=1;align=right;verticalAlign=middle;whiteSpace=wrap;rounded=0;fontSize=60;fillColor=#e1d5e7;strokeColor=none;" vertex="1" parent="9GdMWTHWopy5Y9QK4GNP-68">
          <mxGeometry y="138" width="720" height="132" as="geometry" />
        </mxCell>
        <mxCell id="9GdMWTHWopy5Y9QK4GNP-50" value="&lt;div style=&quot;text-align: justify;&quot;&gt;&lt;b style=&quot;color: rgb(255, 255, 255); font-family: Garamond; background-color: initial;&quot;&gt;&lt;font style=&quot;font-size: 70px;&quot;&gt;Banca ATM&lt;/font&gt;&lt;/b&gt;&lt;/div&gt;" style="rounded=0;whiteSpace=wrap;html=1;fillColor=#6C8EBF;strokeColor=#A9C4EB;" vertex="1" parent="9GdMWTHWopy5Y9QK4GNP-68">
          <mxGeometry y="1.509999999999991" width="720" height="138.49" as="geometry" />
        </mxCell>
        <mxCell id="9GdMWTHWopy5Y9QK4GNP-54" value="" style="shape=card;whiteSpace=wrap;html=1;fillColor=#dae8fc;strokeColor=none;size=160;rotation=90;" vertex="1" parent="9GdMWTHWopy5Y9QK4GNP-68">
          <mxGeometry y="140" width="130" height="130" as="geometry" />
        </mxCell>
        <mxCell id="9GdMWTHWopy5Y9QK4GNP-55" value="&lt;font style=&quot;font-size: 40px;&quot;&gt;########### . ##&lt;/font&gt;" style="rounded=0;whiteSpace=wrap;html=1;fillColor=#f5f5f5;fontColor=#333333;strokeColor=#666666;" vertex="1" parent="9GdMWTHWopy5Y9QK4GNP-68">
          <mxGeometry x="170" y="480" width="380" height="60" as="geometry" />
        </mxCell>
        <mxCell id="9GdMWTHWopy5Y9QK4GNP-57" value="&lt;font color=&quot;#999999&quot; style=&quot;font-size: 30px;&quot;&gt;Ingrese la Cantidad a Retirar&lt;/font&gt;" style="text;html=1;align=center;verticalAlign=middle;whiteSpace=wrap;rounded=0;" vertex="1" parent="9GdMWTHWopy5Y9QK4GNP-68">
          <mxGeometry x="155" y="399.76" width="410" height="41" as="geometry" />
        </mxCell>
        <mxCell id="9GdMWTHWopy5Y9QK4GNP-58" value="&lt;font style=&quot;font-size: 34px;&quot; color=&quot;#ffffff&quot;&gt;Confirmar Retiro&lt;/font&gt;" style="rounded=1;whiteSpace=wrap;html=1;fillColor=#6C8EBF;strokeColor=#A9C4EB;" vertex="1" parent="9GdMWTHWopy5Y9QK4GNP-68">
          <mxGeometry x="215" y="660" width="290" height="90" as="geometry" />
        </mxCell>
        <mxCell id="9GdMWTHWopy5Y9QK4GNP-70" value="" style="group" vertex="1" connectable="0" parent="1">
          <mxGeometry x="2563" y="160" width="720" height="958.49" as="geometry" />
        </mxCell>
        <mxCell id="9GdMWTHWopy5Y9QK4GNP-61" value="" style="rounded=0;whiteSpace=wrap;html=1;fillColor=#dae8fc;strokeColor=#6c8ebf;" vertex="1" parent="9GdMWTHWopy5Y9QK4GNP-70">
          <mxGeometry width="720" height="958.49" as="geometry" />
        </mxCell>
        <mxCell id="9GdMWTHWopy5Y9QK4GNP-62" value="&lt;b&gt;&lt;font face=&quot;Garamond&quot;&gt;Retiro de Efectivo&amp;nbsp; &amp;nbsp; &amp;nbsp;&lt;/font&gt;&lt;/b&gt;" style="text;html=1;align=right;verticalAlign=middle;whiteSpace=wrap;rounded=0;fontSize=60;fillColor=#e1d5e7;strokeColor=none;" vertex="1" parent="9GdMWTHWopy5Y9QK4GNP-70">
          <mxGeometry y="138" width="720" height="132" as="geometry" />
        </mxCell>
        <mxCell id="9GdMWTHWopy5Y9QK4GNP-63" value="&lt;div style=&quot;text-align: justify;&quot;&gt;&lt;b style=&quot;color: rgb(255, 255, 255); font-family: Garamond; background-color: initial;&quot;&gt;&lt;font style=&quot;font-size: 70px;&quot;&gt;Banca ATM&lt;/font&gt;&lt;/b&gt;&lt;/div&gt;" style="rounded=0;whiteSpace=wrap;html=1;fillColor=#6C8EBF;strokeColor=#A9C4EB;" vertex="1" parent="9GdMWTHWopy5Y9QK4GNP-70">
          <mxGeometry y="1.509999999999991" width="720" height="138.49" as="geometry" />
        </mxCell>
        <mxCell id="9GdMWTHWopy5Y9QK4GNP-64" value="" style="shape=card;whiteSpace=wrap;html=1;fillColor=#dae8fc;strokeColor=none;size=160;rotation=90;" vertex="1" parent="9GdMWTHWopy5Y9QK4GNP-70">
          <mxGeometry y="140" width="130" height="130" as="geometry" />
        </mxCell>
        <mxCell id="9GdMWTHWopy5Y9QK4GNP-66" value="&lt;font style=&quot;font-size: 50px;&quot;&gt;Su retiro de &lt;b&gt;########## . ##&lt;/b&gt;&lt;/font&gt;&lt;div&gt;&lt;font style=&quot;font-size: 50px;&quot;&gt;ha sido realizado exitosamente&lt;/font&gt;&lt;/div&gt;" style="text;html=1;align=center;verticalAlign=middle;whiteSpace=wrap;rounded=0;" vertex="1" parent="9GdMWTHWopy5Y9QK4GNP-70">
          <mxGeometry x="87" y="369.88" width="546" height="280.24" as="geometry" />
        </mxCell>
        <mxCell id="9GdMWTHWopy5Y9QK4GNP-67" value="&lt;font style=&quot;font-size: 36px;&quot; color=&quot;#ffffff&quot;&gt;Aceptar&lt;/font&gt;" style="rounded=1;whiteSpace=wrap;html=1;fillColor=#6C8EBF;strokeColor=#A9C4EB;" vertex="1" parent="9GdMWTHWopy5Y9QK4GNP-70">
          <mxGeometry x="215" y="730" width="290" height="90" as="geometry" />
        </mxCell>
      </root>
    </mxGraphModel>
  </diagram>
</mxfile>
